<svg xmlns="http://www.w3.org/2000/svg" viewBox="19.999999999999943 99.90968136919321 535.006418902751 375.1806372616136"> <g transform="rotate(0 119.53539291759682 287.5)"><svg xmlns="http://www.w3.org/2000/svg" viewBox="0.04572702571749687 -0.0633324533700943 43.802188873291016 174.39125061035156" height="235.1806372616136" width="59.070785835193774" y="169.9096813691932" x="89.99999999999994" preserveAspectRatio="xMinYMin" style="overflow: visible;"><path id="Layer_1-2" dataName="Layer 1" d="M22.79,0A28.51,28.51,0,0,0,8.09,5.88,15.26,15.26,0,0,0,4,11.46,32.48,32.48,0,0,0,.22,24,18.65,18.65,0,0,0,6.14,38.28c5.73,5.65,15.62,6.85,23.1,4.84a19.57,19.57,0,0,0,11.67-8.33c2.54-4.16,3.1-9.29,2.46-14.11-.87-6.51-4.24-13.34-9.46-17.44A15.9,15.9,0,0,0,22.79,0Zm.71,8.33a13.48,13.48,0,0,1,8,5.91,17.53,17.53,0,0,1,2.38,11.18A11.09,11.09,0,0,1,31.92,31a11.24,11.24,0,0,1-5.35,3.56,16.81,16.81,0,0,1-8.76.88,11.23,11.23,0,0,1-7.31-4.64C5.22,22.75,11.33,6.85,22,8.1A12.09,12.09,0,0,1,23.5,8.37ZM4.87,11l-.23.33c0,.07-.09.13-.13.19L4.87,11Z" style=""></path><path id="Layer_1-2" dataName="Layer 1" d="M27.64,54.16l-.5.05c-8.25.92-16,4.9-22.29,10.23a20,20,0,0,0-3.62,4A5.17,5.17,0,0,0,.1,72.48a2.46,2.46,0,0,0,1.52,1.77c1.67.58,3.07-1,4.16-2.23A32.92,32.92,0,0,1,24.35,61.08c2.7-.54,10.73-1.56,11.51,2.58a3.26,3.26,0,0,1-.94,2.43c-7,9.1-16.31,16.09-24.29,24.3-3.07,3.17-6.14,7.51-3.26,11.84a13.75,13.75,0,0,0,4.57,4c3.52,2.07,7.42,3.5,10.72,5.91,12.81,9.34,10.3,27.61,5.5,40.52-1.87,5-3.88,10-5.8,15a8.75,8.75,0,0,0-.79,3.57,3.23,3.23,0,0,0,1.88,2.92c4.18,1.52,6.29-7.13,7.35-9.6,3.66-8.56,7.13-17.35,8.11-26.6,1.11-10.48-1.53-21.19-8.66-29.12-3.41-3.79-8-6.17-12.54-8.56A2.74,2.74,0,0,1,17,96c3.63-4,7.89-7.44,11.84-11A85.09,85.09,0,0,0,39.11,74.09c3.51-4.53,7.27-11,2.45-16C38.14,54.61,32.31,53.76,27.64,54.16Zm7.85,8.37.06.06-.06-.06Z" style=""></path></svg></g> <g transform="rotate(0 340.55666609513366 287.49956151525015)"><svg y="252.22290441075796" viewBox="1.3004918098449707 41.119998931884766 288.8995056152344 70.55331420898438" x="196.10691328751645" height="70.55331420898438" width="288.8995056152344" style="overflow: visible;"><g fill="#000" style=""><path d="M18.07 42.96L18.07 42.96Q18.53 41.58 19.41 41.35Q20.29 41.12 21.44 41.12L21.44 41.12Q23.20 41.12 25.38 43.45Q27.56 45.79 29.86 49.69Q32.16 53.60 34.49 58.65Q36.83 63.71 39.01 69.10Q41.19 74.50 43.11 79.86Q45.02 85.22 46.44 89.70Q47.86 94.18 48.62 97.47Q49.39 100.76 49.39 101.99L49.39 101.99Q49.39 103.21 48.81 104.32Q48.24 105.44 46.78 105.44L46.78 105.44Q45.86 105.44 45.21 104.86Q44.56 104.29 44.10 103.44Q43.64 102.60 43.26 101.76Q42.88 100.92 42.57 100.30L42.57 100.30Q42.27 99.46 41.31 97.09Q40.35 94.72 39.32 92.11Q38.28 89.51 37.37 87.21Q36.45 84.91 36.06 83.92L36.06 83.92Q30.70 83.00 25.31 82.20Q19.91 81.39 13.94 80.63L13.94 80.63L13.09 80.63Q10.34 92.49 8.23 99.39Q6.13 106.28 4.71 109.19Q3.29 112.10 2.49 111.60Q1.68 111.10 1.42 108.08Q1.15 105.05 1.49 100.00Q1.84 94.95 2.79 88.86Q3.75 82.77 5.13 76.11Q6.51 69.45 8.46 63.25Q10.41 57.04 12.83 51.72Q15.24 46.40 18.07 42.96ZM16.23 69.91L16.23 69.91Q16.23 72.74 18.07 74.08Q19.91 75.42 22.51 75.80Q25.11 76.19 27.99 76.11Q30.86 76.03 32.92 76.03L32.92 76.03Q32.92 72.97 31.93 69.41Q30.93 65.85 29.40 62.33Q27.87 58.80 26.15 55.47Q24.43 52.14 22.97 49.46L22.97 49.46Q22.13 50.31 21.17 52.56Q20.21 54.82 19.26 57.62Q18.30 60.41 17.53 63.09Q16.77 65.77 16.39 67.46L16.39 67.46Q16.39 67.69 16.31 68.64Q16.23 69.60 16.23 69.91ZM54.06 78.02L54.06 78.02Q54.06 77.33 54.13 76.61Q54.21 75.88 54.44 75.31Q54.67 74.73 55.17 74.35Q55.67 73.97 56.58 73.97L56.58 73.97Q57.35 73.97 58.31 75.15Q59.26 76.34 60.26 78.14Q61.25 79.94 62.21 82.08Q63.17 84.23 63.90 86.02Q64.62 87.82 65.08 89.13Q65.54 90.43 65.62 90.50L65.62 90.50Q66.61 87.82 67.84 84.68Q69.06 81.55 70.86 78.83Q72.66 76.11 75.15 74.27Q77.64 72.43 81.24 72.43L81.24 72.43Q83.08 72.43 84.72 73.01Q86.37 73.58 87.63 74.69Q88.90 75.80 89.66 77.33Q90.43 78.87 90.43 80.86L90.43 80.86Q90.43 82.54 89.09 83.23Q87.75 83.92 86.06 83.92L86.06 83.92L85.30 83.92L82.01 80.63Q81.85 80.63 81.78 80.55L81.78 80.55Q81.62 80.55 81.51 80.51Q81.39 80.47 81.24 80.47L81.24 80.47Q78.56 80.47 77.07 81.97Q75.57 83.46 74.81 85.64Q74.04 87.82 73.85 90.24Q73.66 92.65 73.66 94.64L73.66 94.64Q73.66 96.17 73.97 97.74Q74.27 99.31 74.65 100.80Q75.04 102.30 75.34 103.87Q75.65 105.44 75.65 107.12L75.65 107.12Q75.65 110.34 72.20 110.34L72.20 110.34Q70.29 110.34 68.22 108.31Q66.16 106.28 64.13 103.14Q62.10 100.00 60.26 96.21Q58.42 92.42 57.04 88.82Q55.67 85.22 54.86 82.31Q54.06 79.40 54.06 78.02ZM91.50 71.59L91.50 71.59Q91.50 71.36 91.58 71.21L91.58 71.21Q91.58 71.06 91.65 70.83L91.65 70.83Q91.96 70.44 92.57 69.83Q93.18 69.22 93.34 69.22L93.34 69.22L108.73 69.22Q108.73 68.38 108.50 66.54Q108.27 64.70 108.08 62.48Q107.89 60.26 107.96 57.85Q108.04 55.44 108.61 53.48Q109.19 51.53 110.45 50.27Q111.71 49.00 114.01 49.00L114.01 49.00Q114.01 56.74 115.08 61.41Q116.15 66.08 117.95 68.61Q119.75 71.13 122.05 71.90Q124.35 72.66 126.76 72.55Q129.17 72.43 131.47 71.82Q133.77 71.21 135.56 70.98Q137.36 70.75 138.44 71.32Q139.51 71.90 139.51 74.04L139.51 74.04Q139.51 75.65 138.78 76.34Q138.05 77.03 135.99 77.41L135.99 77.41Q135.37 77.49 133.96 77.68Q132.54 77.87 130.78 78.02Q129.02 78.18 127.03 78.37Q125.04 78.56 123.28 78.71Q121.51 78.87 120.06 78.90Q118.60 78.94 117.92 78.94L117.92 78.94Q117.92 79.33 117.84 80.24Q117.76 81.16 117.76 81.47L117.76 81.47Q117.76 84.84 118.83 88.02Q119.91 91.19 121.17 94.33Q122.43 97.47 123.51 100.61Q124.58 103.75 124.58 107.12L124.58 107.12Q124.58 107.73 124.46 108.38Q124.35 109.03 124.00 109.53Q123.66 110.03 123.01 110.30Q122.36 110.57 121.21 110.18L121.21 110.18Q118.30 109.42 116.88 106.89Q115.47 104.36 114.78 100.88Q114.09 97.40 113.86 93.49Q113.63 89.59 113.13 86.18Q112.63 82.77 111.56 80.36Q110.49 77.95 108.11 77.41L108.11 77.41L93.34 74.04Q93.03 74.04 92.42 73.39Q91.81 72.74 91.65 72.43L91.65 72.43Q91.58 72.28 91.58 72.05L91.58 72.05Q91.50 71.90 91.50 71.59ZM145.63 81.47L145.63 81.47Q145.63 81.01 145.67 79.98Q145.71 78.94 145.75 77.79Q145.79 76.65 145.82 75.57Q145.86 74.50 145.86 74.04L145.86 74.04Q146.71 72.82 148.05 72.05Q149.39 71.29 150.76 70.83L150.76 70.83Q150.99 74.96 152.07 79.63Q153.14 84.30 154.36 89.01Q155.59 93.72 156.54 98.31Q157.50 102.91 157.50 106.89L157.50 106.89Q157.50 110.34 153.98 110.34L153.98 110.34Q151.84 110.34 150.38 108.57Q148.93 106.81 148.05 104.10Q147.16 101.38 146.63 98.05Q146.09 94.72 145.90 91.50Q145.71 88.28 145.67 85.60Q145.63 82.92 145.63 81.47ZM146.71 52.76L146.71 52.76Q148.16 53.37 149.16 54.75Q150.15 56.12 150.04 57.24Q149.92 58.35 148.31 58.77Q146.71 59.19 142.95 57.89L142.95 57.89Q142.95 55.82 143.76 54.29Q144.56 52.76 146.71 52.76ZM175.19 106.74L175.19 106.74Q176.41 105.89 178.14 104.55Q179.86 103.21 181.62 101.68Q183.38 100.15 184.91 98.47Q186.44 96.78 187.33 95.21Q188.21 93.64 188.21 92.27Q188.21 90.89 186.83 89.97L186.83 89.97Q184.38 89.97 181.47 90.16Q178.56 90.35 175.65 90.31Q172.74 90.27 170.02 89.82Q167.30 89.36 165.16 88.13Q163.01 86.91 161.75 84.65Q160.49 82.39 160.49 78.87L160.49 78.87Q160.49 74.73 162.06 71.40Q163.63 68.07 166.23 65.50Q168.83 62.94 172.09 60.99Q175.34 59.03 178.63 57.66L178.63 57.66Q180.63 58.19 182.31 59.57Q183.99 60.95 185.22 62.63L185.22 62.63Q184.68 64.32 183.11 65.24Q181.54 66.16 179.52 66.84Q177.49 67.53 175.27 68.30Q173.05 69.06 171.25 70.33Q169.45 71.59 168.22 73.62Q167.00 75.65 167.00 78.94L167.00 78.94Q167.00 81.39 168.22 82.54Q169.45 83.69 171.44 84.11Q173.43 84.53 175.95 84.42Q178.48 84.30 181.12 84.07Q183.76 83.84 186.29 83.80Q188.82 83.77 190.81 84.42Q192.80 85.07 193.99 86.52Q195.17 87.98 195.17 90.81L195.17 90.81Q195.17 92.04 194.37 93.95Q193.57 95.86 192.23 98.05Q190.89 100.23 189.09 102.37Q187.29 104.52 185.33 106.24Q183.38 107.96 181.43 109.07Q179.48 110.18 177.79 110.18L177.79 110.18Q176.18 110.18 175.69 109.03Q175.19 107.89 175.19 106.74ZM196.55 71.59L196.55 71.59Q196.55 71.36 196.63 71.21L196.63 71.21Q196.63 71.06 196.70 70.83L196.70 70.83Q197.01 70.44 197.62 69.83Q198.24 69.22 198.39 69.22L198.39 69.22L213.78 69.22Q213.78 68.38 213.55 66.54Q213.32 64.70 213.13 62.48Q212.94 60.26 213.01 57.85Q213.09 55.44 213.66 53.48Q214.24 51.53 215.50 50.27Q216.77 49.00 219.06 49.00L219.06 49.00Q219.06 56.74 220.13 61.41Q221.21 66.08 223.01 68.61Q224.81 71.13 227.10 71.90Q229.40 72.66 231.81 72.55Q234.22 72.43 236.52 71.82Q238.82 71.21 240.62 70.98Q242.42 70.75 243.49 71.32Q244.56 71.90 244.56 74.04L244.56 74.04Q244.56 75.65 243.83 76.34Q243.11 77.03 241.04 77.41L241.04 77.41Q240.43 77.49 239.01 77.68Q237.59 77.87 235.83 78.02Q234.07 78.18 232.08 78.37Q230.09 78.56 228.33 78.71Q226.57 78.87 225.11 78.90Q223.66 78.94 222.97 78.94L222.97 78.94Q222.97 79.33 222.89 80.24Q222.81 81.16 222.81 81.47L222.81 81.47Q222.81 84.84 223.89 88.02Q224.96 91.19 226.22 94.33Q227.49 97.47 228.56 100.61Q229.63 103.75 229.63 107.12L229.63 107.12Q229.63 107.73 229.51 108.38Q229.40 109.03 229.06 109.53Q228.71 110.03 228.06 110.30Q227.41 110.57 226.26 110.18L226.26 110.18Q223.35 109.42 221.93 106.89Q220.52 104.36 219.83 100.88Q219.14 97.40 218.91 93.49Q218.68 89.59 218.18 86.18Q217.68 82.77 216.61 80.36Q215.54 77.95 213.17 77.41L213.17 77.41L198.39 74.04Q198.08 74.04 197.47 73.39Q196.86 72.74 196.70 72.43L196.70 72.43Q196.63 72.28 196.63 72.05L196.63 72.05Q196.55 71.90 196.55 71.59ZM280.39 100.30L280.39 100.30Q277.48 102.30 275.38 103.87Q273.27 105.44 271.28 106.51Q269.29 107.58 267.03 108.11Q264.77 108.65 261.48 108.65L261.48 108.65Q254.36 108.65 250.92 104.86Q247.47 101.07 247.47 93.57L247.47 93.57Q247.47 90.66 248.24 87.52Q249.00 84.38 250.49 81.28Q251.99 78.18 254.05 75.38Q256.12 72.59 258.73 70.44Q261.33 68.30 264.28 67.04Q267.22 65.77 270.52 65.77L270.52 65.77Q276.03 66.31 279.17 68.49Q282.31 70.67 283.92 74.08Q285.52 77.49 286.14 81.66Q286.75 85.83 287.09 90.27Q287.44 94.72 287.97 99.16Q288.51 103.60 290.20 107.35L290.20 107.35Q289.20 109.88 288.32 110.91Q287.44 111.94 286.37 111.25Q285.29 110.57 283.88 107.89Q282.46 105.21 280.39 100.30ZM253.98 93.72L253.98 93.72Q253.98 98.08 255.62 100.11Q257.27 102.14 261.48 102.14L261.48 102.14Q264.62 102.14 267.49 101.03Q270.36 99.92 272.51 97.97Q274.65 96.02 275.95 93.26Q277.26 90.50 277.26 87.14L277.26 87.14Q277.26 85.76 277.33 83.27Q277.41 80.78 277.03 78.33Q276.64 75.88 275.57 74.08Q274.50 72.28 272.35 72.28L272.35 72.28Q268.37 72.28 265.00 74.31Q261.64 76.34 259.18 79.48Q256.73 82.62 255.36 86.41Q253.98 90.20 253.98 93.72Z" transform="translate(0, 0)"></path></g></svg></g></svg>